<?xml version="1.0" standalone="no"?>
<!DOCTYPE svg PUBLIC "-//W3C//DTD SVG 20010904//EN"
 "http://www.w3.org/TR/2001/REC-SVG-20010904/DTD/svg10.dtd">
<svg version="1.0" xmlns="http://www.w3.org/2000/svg"
 width="300.000000pt" height="123.000000pt" viewBox="0 0 300.000000 123.000000"
 preserveAspectRatio="xMidYMid meet">
<metadata>
Created by potrace 1.10, written by Peter Selinger 2001-2011
</metadata>
<g transform="translate(0.000000,123.000000) scale(0.100000,-0.100000)"
fill="#000000" stroke="none">
<path d="M710 747 c0 -8 -3 -29 -7 -48 l-6 -33 41 35 c43 36 43 44 0 54 -21 5
-28 3 -28 -8z"/>
<path d="M560 715 c-18 -19 -20 -26 -9 -29 69 -24 104 -34 107 -31 3 2 -7 18
-22 35 -14 17 -26 36 -26 41 0 17 -27 9 -50 -16z m60 -28 c0 -7 -39 0 -49 9
-2 2 2 10 9 19 11 14 14 13 26 -2 7 -10 14 -22 14 -26z"/>
<path d="M2009 624 c2 -65 0 -89 -10 -95 -9 -6 0 -8 26 -8 22 0 34 3 28 6 -7
2 -13 17 -13 31 l0 27 26 -32 c14 -18 34 -33 45 -33 17 0 14 6 -16 35 -19 20
-35 40 -35 45 0 5 15 17 33 27 27 14 29 18 12 21 -12 3 -27 -6 -42 -24 l-23
-29 0 58 c0 48 -3 57 -17 57 -16 0 -18 -9 -14 -86z"/>
<path d="M797 676 c-57 -34 -66 -46 -35 -46 14 0 39 -3 56 -6 29 -6 30 -5 34
35 4 47 -1 48 -55 17z m43 -16 c0 -16 -7 -20 -37 -20 l-38 0 30 19 c39 25 45
25 45 1z"/>
<path d="M1034 623 c-15 -43 -35 -83 -44 -90 -12 -10 -9 -12 20 -13 22 0 30 3
22 8 -23 15 3 62 33 62 30 0 56 -47 33 -62 -19 -12 160 -10 183 2 24 14 26 65
2 80 -13 8 -14 13 -5 16 15 7 16 46 0 62 -7 7 -37 12 -68 11 -30 0 -49 -3 -42
-6 8 -3 12 -30 12 -84 0 -71 -2 -79 -19 -79 -19 0 -29 18 -64 124 -8 22 -18
41 -24 43 -6 2 -23 -31 -39 -74z m217 57 c10 -6 19 -17 19 -25 0 -14 -29 -35
-49 -35 -6 0 -11 16 -11 35 0 37 9 42 41 25z m-173 -47 c10 -31 10 -33 -13
-33 -22 0 -23 2 -12 35 6 19 11 34 12 32 1 -1 7 -17 13 -34z m190 -59 c2 -25
-1 -33 -19 -37 -32 -8 -39 -1 -39 39 0 33 2 35 28 32 22 -2 28 -9 30 -34z"/>
<path d="M1355 676 c-19 -19 -25 -35 -25 -69 0 -55 30 -87 82 -87 53 0 68 9
68 39 l-1 26 -20 -27 c-42 -56 -99 -25 -99 54 0 62 34 91 84 72 9 -3 16 -12
16 -20 0 -8 5 -14 11 -14 6 0 9 10 7 23 -3 19 -10 22 -50 25 -40 3 -52 -1 -73
-22z"/>
<path d="M1530 690 c8 -5 24 -44 36 -87 11 -42 25 -78 31 -80 6 -2 19 29 30
69 l20 73 17 -60 c24 -83 24 -85 35 -85 9 0 27 52 46 133 4 15 15 32 24 37 12
7 6 9 -24 9 -30 0 -36 -2 -24 -9 16 -9 16 -15 1 -72 l-16 -63 -21 67 c-12 37
-24 70 -27 74 -9 9 -24 -24 -38 -86 l-14 -55 -19 64 c-15 52 -16 65 -5 72 8 6
-1 9 -27 9 -29 0 -36 -3 -25 -10z"/>
<path d="M2448 661 c-10 -12 -13 -23 -8 -26 6 -4 10 -29 10 -56 0 -53 14 -68
48 -53 15 7 14 8 -5 11 -20 4 -23 10 -23 53 0 40 3 48 15 44 8 -4 15 -1 15 5
0 6 -6 11 -14 11 -8 0 -16 7 -18 15 -2 13 -6 12 -20 -4z"/>
<path d="M1777 632 c-38 -42 -9 -112 46 -112 35 0 57 25 57 65 0 18 -7 41 -16
49 -21 22 -67 20 -87 -2z m73 -22 c13 -56 -13 -96 -45 -70 -18 15 -20 71 -3
88 19 19 41 10 48 -18z"/>
<path d="M1908 638 c16 -16 16 -105 0 -111 -7 -3 5 -6 27 -6 22 0 35 3 28 7
-7 4 -13 28 -14 52 -3 60 -8 70 -32 70 -16 0 -18 -3 -9 -12z"/>
<path d="M2149 634 c-7 -9 -13 -31 -13 -49 0 -44 19 -65 59 -65 40 0 59 21 59
65 0 44 -19 65 -59 65 -18 0 -39 -7 -46 -16z m73 -19 c15 -34 0 -80 -27 -80
-27 0 -42 46 -27 80 6 14 19 25 27 25 8 0 21 -11 27 -25z"/>
<path d="M2278 638 c7 -7 12 -31 12 -54 0 -23 6 -46 13 -51 6 -6 37 -10 67
-10 30 0 49 2 43 4 -9 3 -13 26 -13 64 0 50 -3 59 -18 59 -15 0 -18 -9 -17
-52 0 -47 -2 -53 -22 -56 -22 -3 -23 0 -23 52 0 54 -1 56 -27 56 -21 0 -24 -3
-15 -12z"/>
<path d="M506 622 c-8 -14 -17 -72 -12 -72 10 0 128 61 125 64 -9 7 -109 14
-113 8z m73 -16 c-2 -2 -19 -11 -36 -20 -32 -16 -33 -16 -33 4 0 16 7 20 37
20 20 0 34 -2 32 -4z"/>
<path d="M598 534 c-21 -29 -38 -56 -38 -59 0 -3 14 -5 32 -3 29 3 32 7 43 56
7 29 9 54 6 56 -3 2 -23 -20 -43 -50z m19 -19 c-6 -19 -17 -35 -25 -35 -12 0
-12 3 0 23 8 12 18 28 22 35 13 22 14 13 3 -23z"/>
<path d="M703 540 c0 -28 2 -52 6 -54 3 -2 24 4 46 14 l40 17 -37 23 c-21 12
-38 28 -38 36 0 8 -4 14 -8 14 -5 0 -9 -23 -9 -50z m57 -21 c0 -4 -9 -9 -20
-12 -16 -4 -20 0 -20 19 0 22 2 23 20 12 11 -7 20 -16 20 -19z"/>
</g>
</svg>
