<svg data-v-fde0c5aa="" xmlns="http://www.w3.org/2000/svg" viewBox="0 0 300 300" class="font"><!----><defs data-v-fde0c5aa=""><!----></defs><rect data-v-fde0c5aa="" fill="transparent" x="0" y="0" width="300px" height="300px" class="logo-background-square"></rect><defs data-v-fde0c5aa=""><linearGradient data-v-fde0c5aa="" gradientTransform="rotate(25)" id="cece4f36-00e1-4952-834e-df4d8f430ce9" x1="0%" y1="0%" x2="100%" y2="0%"><stop data-v-fde0c5aa="" offset="0%" stop-color="#49247E" stop-opacity="1"></stop><stop data-v-fde0c5aa="" offset="100%" stop-color="#AA49C7" stop-opacity="1"></stop></linearGradient></defs><g data-v-fde0c5aa="" id="e7dd108e-1675-41f3-b424-b9908622738b" fill="url(#cece4f36-00e1-4952-834e-df4d8f430ce9)" transform="matrix(2.600165446318224,0,0,2.600165446318224,41.066067823691554,128.6526409666112)"><path d="M-0.41 13.30L2.67 13.30L2.67 12.89L1.95 12.82C1.53 12.78 1.48 12.64 1.60 12.26C1.83 11.42 2.13 10.56 2.45 9.56L5.59 9.56L6.52 12.24C6.66 12.64 6.59 12.80 6.15 12.84L5.52 12.89L5.52 13.30L9.10 13.30L9.10 12.89C8.29 12.82 8.13 12.78 7.88 12.05L4.91 3.61L3.88 3.61L2.41 7.76C1.97 8.97 1.39 10.65 0.90 11.93C0.60 12.68 0.48 12.85-0.41 12.89ZM2.63 9.03C3.08 7.63 3.57 6.26 3.99 5.03L4.03 5.03L5.42 9.03ZM9.38 13.30L13.72 13.30C15.85 13.30 17.22 12.53 17.22 10.58C17.22 8.93 16.04 8.20 14.69 8.02L14.69 7.99C16.00 7.73 16.77 6.92 16.77 5.84C16.77 5.07 16.46 4.49 15.90 4.12C15.36 3.75 14.55 3.61 13.43 3.61L9.38 3.61L9.38 4.02C10.61 4.10 10.64 4.13 10.64 4.91L10.64 12.00C10.64 12.78 10.61 12.81 9.38 12.89ZM12.03 11.73L12.03 8.33L13.03 8.33C14.77 8.33 15.72 9.20 15.72 10.68C15.72 12.36 14.57 12.81 13.37 12.81C12.25 12.81 12.03 12.60 12.03 11.73ZM12.03 7.84L12.03 4.80C12.03 4.20 12.07 4.10 13.16 4.10C14.18 4.10 15.30 4.48 15.30 5.92C15.30 7.29 14.42 7.84 12.96 7.84ZM18.61 8.53C18.61 10.16 19.10 11.48 19.94 12.32C20.80 13.19 22.18 13.51 23.74 13.51C24.86 13.51 26.15 13.20 26.82 12.84L27.02 10.50L26.60 10.50C26.21 11.96 25.49 13.02 23.66 13.02C20.78 13.02 20.17 10.18 20.17 8.48C20.17 6.19 21.08 3.89 23.69 3.89C25.12 3.89 26.11 4.48 26.38 6.13L26.80 6.13L26.80 3.95C26.17 3.65 25.10 3.40 23.83 3.40C22.11 3.40 20.72 3.91 19.88 4.84C19.08 5.74 18.61 6.94 18.61 8.53ZM29.64 4.02C30.46 4.06 30.59 4.10 30.83 4.93C31.15 6.03 31.56 7.43 31.93 8.83L33.12 13.30L34.20 13.30L36.40 5.54L36.43 5.54C37.28 8.22 38.05 10.79 38.77 13.30L39.83 13.30L41.23 8.30C41.68 6.72 42 5.49 42.20 4.96C42.48 4.14 42.63 4.07 43.50 4.02L43.50 3.61L40.29 3.61L40.29 4.02L41.16 4.10C41.50 4.14 41.52 4.34 41.47 4.63C41.38 5.15 41.08 6.30 40.73 7.62L39.69 11.62L39.65 11.62C38.85 9.03 38.05 6.44 37.28 3.86L36.23 3.86L34.09 11.62L34.06 11.62C33.33 9.21 32.72 6.86 32.16 4.66C32.05 4.20 32.12 4.12 32.45 4.09L33.15 4.02L33.15 3.61L29.64 3.61ZM42.76 9.87C42.76 12.14 43.86 13.47 46.12 13.47C48.37 13.47 49.48 12.14 49.48 9.87C49.48 7.60 48.37 6.27 46.12 6.27C43.86 6.27 42.76 7.60 42.76 9.87ZM44.21 9.87C44.21 7.94 44.83 6.76 46.12 6.76C47.40 6.76 48.02 7.94 48.02 9.87C48.02 11.80 47.40 12.98 46.12 12.98C44.83 12.98 44.21 11.80 44.21 9.87ZM50.60 13.30L54.29 13.30L54.29 12.89C53.05 12.82 52.96 12.80 52.96 12.08L52.96 8.81C52.96 7.73 53.44 7.36 53.76 7.36C53.98 7.36 54.22 7.45 54.63 7.67C54.73 7.73 54.84 7.74 54.91 7.74C55.24 7.74 55.55 7.39 55.55 6.96C55.55 6.65 55.36 6.27 54.81 6.27C54.31 6.27 53.89 6.58 52.96 7.39L52.79 6.27L50.67 6.62L50.67 6.97L51.20 7.04C51.56 7.10 51.65 7.17 51.65 7.67L51.65 12.08C51.65 12.80 51.58 12.82 50.60 12.89ZM55.79 13.30L59.21 13.30L59.21 12.89C58.21 12.82 58.16 12.80 58.16 12.08L58.16 9.74L58.18 9.74C58.76 10.65 59.75 11.87 60.48 12.61C61.00 13.13 61.54 13.30 61.99 13.33L63.04 13.37L63.04 12.98C62.62 12.87 62.27 12.66 61.84 12.22C60.97 11.37 59.88 10.04 59.35 9.28C59.28 9.18 59.25 9.11 59.39 8.96C60.06 8.19 60.51 7.78 60.98 7.43C61.46 7.08 61.81 6.92 62.62 6.83L62.62 6.44L61.18 6.44C60.70 6.44 60.58 6.51 60.30 6.85C59.89 7.34 58.51 9.07 58.18 9.55L58.16 9.55L58.16 3.00L58.06 2.91L55.86 3.26L55.86 3.61L56.39 3.67C56.76 3.71 56.84 3.78 56.84 4.31L56.84 12.08C56.84 12.80 56.80 12.82 55.79 12.89ZM63.53 9.87C63.53 12.14 64.64 13.47 66.89 13.47C69.15 13.47 70.25 12.14 70.25 9.87C70.25 7.60 69.15 6.27 66.89 6.27C64.64 6.27 63.53 7.60 63.53 9.87ZM64.99 9.87C64.99 7.94 65.60 6.76 66.89 6.76C68.18 6.76 68.80 7.94 68.80 9.87C68.80 11.80 68.18 12.98 66.89 12.98C65.60 12.98 64.99 11.80 64.99 9.87ZM71.29 6.97L71.82 7.04C72.18 7.10 72.27 7.17 72.27 7.67L72.27 11.37C72.27 12.98 73.22 13.47 74.26 13.47C75.45 13.47 76.41 12.66 76.82 12.46L76.96 13.30L79.20 13.30L79.20 12.89C78.23 12.82 78.15 12.80 78.15 12.08L78.15 6.36L78.05 6.27L75.85 6.62L75.85 6.97L76.38 7.04C76.75 7.10 76.83 7.17 76.83 7.67L76.83 10.82C76.83 11.21 76.79 11.52 76.72 11.66C76.40 12.31 75.73 12.71 75.00 12.71C74.19 12.71 73.58 12.21 73.58 11.12L73.58 6.36L73.49 6.27L71.29 6.62ZM79.84 7.00L80.85 7.00L80.85 11.87C80.85 13.30 81.91 13.47 82.40 13.47C83.12 13.47 83.79 13.10 84.20 12.85L84.08 12.56C83.75 12.70 83.44 12.74 83.09 12.74C82.61 12.74 82.17 12.40 82.17 11.34L82.17 7.00L83.97 7.00L83.97 6.44L82.17 6.44L82.17 4.68L81.76 4.68L80.91 6.44L79.84 6.44Z"></path></g><!----><!----></svg>